<?xml version="1.0" encoding="utf-8"?><svg version="1.1" id="Layer_1" xmlns="http://www.w3.org/2000/svg" xmlns:xlink="http://www.w3.org/1999/xlink" x="0px" y="0px" viewBox="0 0 122.88 76.31" style="enable-background:new 0 0 122.88 76.31" xml:space="preserve"><style type="text/css">.st0{fill-rule:evenodd;clip-rule:evenodd;}</style><g><path class="st0" d="M89.9,51.59c-0.49,0.56-0.99,1.15-1.51,1.74c-4.87,5.65-9.81,11.38-17.3,13.94 c-9.94,3.4-21.32,0.68-39.89-3.77c-1.81-0.43-3.71-0.89-7.38-1.75c-0.33-0.08-0.71-0.15-1.15-0.23c-3.22-0.61-8.63-1.62-7.87-5.58 c0.51-2.62,3.57-4.13,5.96-5.31c0.56-0.28,1.07-0.53,1.46-0.75c2.52-1.46,4.94-2.99,7.31-4.49c6.6-4.18,12.89-8.16,20.09-9.98 c4.06-1.03,7.51-1.47,10.73-1.4c3.25,0.07,6.23,0.66,9.31,1.7c4.36,1.47,8.55,4.36,12.79,7.29c2.76,1.91,5.54,3.83,8.32,5.32 c2.95,1.58,6.51,1.84,7.73,1.93c0.52,0.04,0.83,0.06,1.19,0.27c0.79,0.47,1.05,1.49,0.59,2.28c-0.41,0.7-1.26,0.99-2,0.71l0,0.05 c0,0,0,0,0,0C96.97,53.48,93.31,53.21,89.9,51.59L89.9,51.59z M17.12,51.06c-0.72,0.57-1.77,0.44-2.33-0.28 c-0.57-0.72-0.44-1.77,0.28-2.33C22.12,42.91,29,37.51,36.52,33.38c7.6-4.18,15.8-7.03,25.37-7.38 c10.54-0.38,17.03,4.92,23.27,10.02c3.26,2.67,6.45,5.27,10.04,6.82c0.52,0.23,1.03,0.4,1.52,0.54c0.49,0.14,1.01,0.24,1.53,0.32 c0.91,0.13,1.54,0.98,1.4,1.89c-0.13,0.91-0.98,1.54-1.89,1.4c-0.63-0.09-1.28-0.23-1.94-0.41c-0.67-0.18-1.32-0.41-1.95-0.68 c-4.02-1.73-7.39-4.49-10.83-7.3c-5.77-4.72-11.76-9.61-21.04-9.28c-8.97,0.33-16.7,3.02-23.89,6.98 C30.85,40.29,24.07,45.6,17.12,51.06L17.12,51.06z M0,45.2C77.3,6.65,59.8-1.01,122.88,42.83l-22.2-24.05 C73.18-5.73,65.44-3.64,40.09,10.17C29.27,16.06,9.19,22.4,4.68,33.6L0,45.2L0,45.2z M21.57,65.18c-0.81-0.43-1.12-1.44-0.69-2.25 c0.43-0.81,1.44-1.12,2.25-0.69c14.67,7.8,27.99,11.67,39.67,10.57c11.52-1.09,21.53-7.07,29.72-18.98 c0.52-0.75,1.55-0.94,2.31-0.42c0.75,0.52,0.94,1.55,0.42,2.31c-8.8,12.78-19.62,19.21-32.14,20.39 C50.74,77.28,36.79,73.28,21.57,65.18L21.57,65.18z M63.79,36.06c-0.44-0.06-0.89-0.11-1.34-0.15 C62.9,35.9,63.35,35.95,63.79,36.06L63.79,36.06z M44.27,40.82c-2.38,22.19,30.63,29,35.64,4.45l0.67,0.46 c2.09,1.45,4.2,2.9,6.36,4.21c-0.36,0.41-0.7,0.81-1.05,1.22c-4.58,5.31-9.22,10.7-15.85,12.97c-9.05,3.1-20.08,0.46-38.05-3.84 c-2.88-0.69-5.9-1.41-7.4-1.76c-0.31-0.07-0.77-0.16-1.29-0.26c-2-0.38-5.35-1.01-5.22-1.69c0.19-0.99,2.43-2.1,4.17-2.96 c0.61-0.3,1.18-0.58,1.65-0.86c2.54-1.47,5-3.03,7.41-4.56C35.67,45.45,39.89,42.78,44.27,40.82L44.27,40.82z M67.55,38.31 c-0.88-0.83-1.73-1.44-2.56-1.83c-0.81-0.34-1.71-0.52-2.64-0.52c-0.45,0-0.88,0.04-1.31,0.12c-0.85,0.21-1.72,0.58-2.63,1.1 c-1.81,1.25-3,3.34-3,5.71c0,3.83,3.11,6.94,6.94,6.94c3.83,0,6.94-3.11,6.94-6.94C69.28,41.14,68.63,39.54,67.55,38.31 L67.55,38.31z M98.01,53.39c-0.29-0.18,0.25,0.16,0.27,0.18l0-0.05C98.19,53.48,98.1,53.44,98.01,53.39L98.01,53.39z"/></g></svg>