<svg width="204" height="153" viewBox="0 0 204 153" fill="none" xmlns="http://www.w3.org/2000/svg">
<g clip-path="url(#clip0_114_23)">
<rect width="204" height="153" fill="white" fill-opacity="0.7"/>
<rect x="16" width="188" height="153" fill="#001A75"/>
<g filter="url(#filter0_d_114_23)">
<path d="M56.4495 96V88.7273H57.9871V94.7322H61.105V96H56.4495ZM63.5624 96H61.9147L64.4253 88.7273H66.4069L68.914 96H67.2662L65.4445 90.3892H65.3877L63.5624 96ZM63.4594 93.1413H67.3515V94.3416H63.4594V93.1413ZM72.1038 96V88.7273H75.0157C75.5508 88.7273 75.997 88.8066 76.3545 88.9652C76.712 89.1238 76.9807 89.344 77.1606 89.6257C77.3405 89.9051 77.4305 90.227 77.4305 90.5916C77.4305 90.8757 77.3737 91.1255 77.26 91.3409C77.1464 91.554 76.9901 91.7292 76.7913 91.8665C76.5948 92.0014 76.3699 92.0973 76.1166 92.1541V92.2251C76.3936 92.237 76.6528 92.3151 76.8943 92.4595C77.1381 92.6039 77.3358 92.8063 77.4873 93.0668C77.6388 93.3248 77.7146 93.6326 77.7146 93.9901C77.7146 94.3759 77.6187 94.7204 77.4269 95.0234C77.2375 95.3241 76.957 95.562 76.5853 95.7372C76.2136 95.9124 75.7555 96 75.211 96H72.1038ZM73.6414 94.7429H74.895C75.3235 94.7429 75.636 94.6612 75.8325 94.4979C76.029 94.3321 76.1272 94.112 76.1272 93.8374C76.1272 93.6361 76.0787 93.4586 75.9816 93.3047C75.8846 93.1508 75.7461 93.0301 75.5661 92.9425C75.3886 92.8549 75.1767 92.8111 74.9305 92.8111H73.6414V94.7429ZM73.6414 91.7706H74.7813C74.992 91.7706 75.1791 91.7339 75.3424 91.6605C75.5081 91.5848 75.6383 91.4782 75.733 91.3409C75.8301 91.2036 75.8786 91.0391 75.8786 90.8473C75.8786 90.5845 75.7851 90.3726 75.5981 90.2116C75.4134 90.0507 75.1507 89.9702 74.8097 89.9702H73.6414V91.7706ZM79.9687 96H78.3209L80.8316 88.7273H82.8131L85.3202 96H83.6725L81.8508 90.3892H81.7939L79.9687 96ZM79.8657 93.1413H83.7577V94.3416H79.8657V93.1413ZM92.2787 88.7273V96H90.9506L87.7865 91.4226H87.7332V96H86.1956V88.7273H87.545L90.6842 93.3011H90.7481V88.7273H92.2787ZM96.2941 93.4716H97.6009L98.2579 94.3168L98.9042 95.0696L100.122 96.5966H98.6876L97.8495 95.5668L97.4198 94.956L96.2941 93.4716ZM100.232 92.3636C100.232 93.1567 100.082 93.8314 99.7813 94.3878C99.483 94.9441 99.0758 95.3691 98.5597 95.6626C98.046 95.9538 97.4684 96.0994 96.8268 96.0994C96.1805 96.0994 95.6005 95.9527 95.0867 95.6591C94.573 95.3655 94.167 94.9406 93.8687 94.3842C93.5704 93.8279 93.4213 93.1544 93.4213 92.3636C93.4213 91.5705 93.5704 90.8958 93.8687 90.3395C94.167 89.7831 94.573 89.3594 95.0867 89.0682C95.6005 88.7746 96.1805 88.6278 96.8268 88.6278C97.4684 88.6278 98.046 88.7746 98.5597 89.0682C99.0758 89.3594 99.483 89.7831 99.7813 90.3395C100.082 90.8958 100.232 91.5705 100.232 92.3636ZM98.6734 92.3636C98.6734 91.8499 98.5964 91.4167 98.4426 91.0639C98.291 90.7112 98.0768 90.4437 97.7998 90.2614C97.5228 90.0791 97.1985 89.9879 96.8268 89.9879C96.4551 89.9879 96.1308 90.0791 95.8538 90.2614C95.5768 90.4437 95.3614 90.7112 95.2075 91.0639C95.056 91.4167 94.9802 91.8499 94.9802 92.3636C94.9802 92.8774 95.056 93.3106 95.2075 93.6634C95.3614 94.0161 95.5768 94.2836 95.8538 94.4659C96.1308 94.6482 96.4551 94.7393 96.8268 94.7393C97.1985 94.7393 97.5228 94.6482 97.7998 94.4659C98.0768 94.2836 98.291 94.0161 98.4426 93.6634C98.5964 93.3106 98.6734 92.8774 98.6734 92.3636ZM105.864 88.7273H107.401V93.4503C107.401 93.9806 107.275 94.4446 107.021 94.8423C106.77 95.2401 106.419 95.5502 105.967 95.7727C105.514 95.9929 104.988 96.103 104.386 96.103C103.783 96.103 103.255 95.9929 102.802 95.7727C102.35 95.5502 101.999 95.2401 101.748 94.8423C101.497 94.4446 101.371 93.9806 101.371 93.4503V88.7273H102.909V93.3189C102.909 93.5959 102.969 93.8421 103.09 94.0575C103.213 94.273 103.386 94.4422 103.609 94.5653C103.831 94.6884 104.09 94.75 104.386 94.75C104.685 94.75 104.944 94.6884 105.164 94.5653C105.387 94.4422 105.558 94.273 105.679 94.0575C105.802 93.8421 105.864 93.5959 105.864 93.3189V88.7273ZM108.666 96V88.7273H113.567V89.995H110.204V91.728H113.315V92.9957H110.204V94.7322H113.581V96H108.666ZM119.849 93.4716H121.156L121.813 94.3168L122.459 95.0696L123.677 96.5966H122.242L121.404 95.5668L120.975 94.956L119.849 93.4716ZM123.787 92.3636C123.787 93.1567 123.637 93.8314 123.336 94.3878C123.038 94.9441 122.631 95.3691 122.114 95.6626C121.601 95.9538 121.023 96.0994 120.381 96.0994C119.735 96.0994 119.155 95.9527 118.641 95.6591C118.128 95.3655 117.722 94.9406 117.423 94.3842C117.125 93.8279 116.976 93.1544 116.976 92.3636C116.976 91.5705 117.125 90.8958 117.423 90.3395C117.722 89.7831 118.128 89.3594 118.641 89.0682C119.155 88.7746 119.735 88.6278 120.381 88.6278C121.023 88.6278 121.601 88.7746 122.114 89.0682C122.631 89.3594 123.038 89.7831 123.336 90.3395C123.637 90.8958 123.787 91.5705 123.787 92.3636ZM122.228 92.3636C122.228 91.8499 122.151 91.4167 121.997 91.0639C121.846 90.7112 121.631 90.4437 121.354 90.2614C121.078 90.0791 120.753 89.9879 120.381 89.9879C120.01 89.9879 119.685 90.0791 119.408 90.2614C119.131 90.4437 118.916 90.7112 118.762 91.0639C118.611 91.4167 118.535 91.8499 118.535 92.3636C118.535 92.8774 118.611 93.3106 118.762 93.6634C118.916 94.0161 119.131 94.2836 119.408 94.4659C119.685 94.6482 120.01 94.7393 120.381 94.7393C120.753 94.7393 121.078 94.6482 121.354 94.4659C121.631 94.2836 121.846 94.0161 121.997 93.6634C122.151 93.3106 122.228 92.8774 122.228 92.3636ZM129.418 88.7273H130.956V93.4503C130.956 93.9806 130.829 94.4446 130.576 94.8423C130.325 95.2401 129.973 95.5502 129.521 95.7727C129.069 95.9929 128.542 96.103 127.941 96.103C127.337 96.103 126.809 95.9929 126.357 95.7727C125.905 95.5502 125.553 95.2401 125.302 94.8423C125.052 94.4446 124.926 93.9806 124.926 93.4503V88.7273H126.464V93.3189C126.464 93.5959 126.524 93.8421 126.645 94.0575C126.768 94.273 126.941 94.4422 127.163 94.5653C127.386 94.6884 127.645 94.75 127.941 94.75C128.239 94.75 128.498 94.6884 128.719 94.5653C128.941 94.4422 129.113 94.273 129.234 94.0575C129.357 93.8421 129.418 93.5959 129.418 93.3189V88.7273ZM133.759 88.7273V96H132.221V88.7273H133.759ZM143.421 88.7273V96H142.093L138.929 91.4226H138.876V96H137.338V88.7273H138.688L141.827 93.3011H141.891V88.7273H143.421ZM144.692 96V88.7273H149.592V89.995H146.229V91.728H149.34V92.9957H146.229V94.7322H149.606V96H144.692ZM72.4065 108V100.727H75.3184C75.8535 100.727 76.2997 100.807 76.6572 100.965C77.0147 101.124 77.2834 101.344 77.4633 101.626C77.6433 101.905 77.7332 102.227 77.7332 102.592C77.7332 102.876 77.6764 103.125 77.5628 103.341C77.4491 103.554 77.2929 103.729 77.094 103.866C76.8975 104.001 76.6726 104.097 76.4193 104.154V104.225C76.6963 104.237 76.9555 104.315 77.197 104.46C77.4408 104.604 77.6385 104.806 77.79 105.067C77.9416 105.325 78.0173 105.633 78.0173 105.99C78.0173 106.376 77.9214 106.72 77.7297 107.023C77.5403 107.324 77.2597 107.562 76.8881 107.737C76.5164 107.912 76.0583 108 75.5138 108H72.4065ZM73.9442 106.743H75.1977C75.6262 106.743 75.9387 106.661 76.1352 106.498C76.3317 106.332 76.43 106.112 76.43 105.837C76.43 105.636 76.3814 105.459 76.2844 105.305C76.1873 105.151 76.0488 105.03 75.8689 104.942C75.6913 104.855 75.4794 104.811 75.2332 104.811H73.9442V106.743ZM73.9442 103.771H75.0841C75.2948 103.771 75.4818 103.734 75.6452 103.661C75.8109 103.585 75.9411 103.478 76.0358 103.341C76.1328 103.204 76.1814 103.039 76.1814 102.847C76.1814 102.585 76.0879 102.373 75.9008 102.212C75.7162 102.051 75.4534 101.97 75.1125 101.97H73.9442V103.771ZM79.0178 108V100.727H80.5555V106.732H83.6734V108H79.0178ZM86.1308 108H84.483L86.9937 100.727H88.9752L91.4823 108H89.8346L88.0129 102.389H87.9561L86.1308 108ZM86.0278 105.141H89.9198V106.342H86.0278V105.141ZM96.8383 103.078C96.7886 102.905 96.7188 102.753 96.6288 102.62C96.5389 102.485 96.4288 102.371 96.2986 102.279C96.1707 102.184 96.0239 102.112 95.8582 102.062C95.6949 102.013 95.5138 101.988 95.3149 101.988C94.9432 101.988 94.6165 102.08 94.3348 102.265C94.0554 102.45 93.8376 102.718 93.6814 103.071C93.5251 103.421 93.447 103.85 93.447 104.357C93.447 104.863 93.5239 105.294 93.6778 105.649C93.8317 106.004 94.0495 106.275 94.3312 106.462C94.613 106.647 94.9456 106.739 95.3291 106.739C95.6771 106.739 95.9742 106.678 96.2204 106.555C96.469 106.429 96.6584 106.253 96.7886 106.026C96.9212 105.798 96.9875 105.53 96.9875 105.219L97.3 105.266H95.425V104.108H98.4683V105.024C98.4683 105.663 98.3334 106.213 98.0635 106.672C97.7936 107.129 97.4219 107.482 96.9484 107.73C96.4749 107.976 95.9328 108.099 95.322 108.099C94.6402 108.099 94.0412 107.949 93.5251 107.648C93.009 107.345 92.6066 106.916 92.3177 106.359C92.0313 105.801 91.8881 105.138 91.8881 104.371C91.8881 103.781 91.9733 103.256 92.1437 102.794C92.3166 102.33 92.558 101.937 92.8682 101.615C93.1783 101.293 93.5393 101.048 93.9513 100.88C94.3632 100.712 94.8095 100.628 95.29 100.628C95.702 100.628 96.0855 100.688 96.4406 100.809C96.7957 100.927 97.1106 101.095 97.3852 101.313C97.6622 101.531 97.8883 101.79 98.0635 102.091C98.2387 102.389 98.3511 102.718 98.4008 103.078H96.8383ZM104.116 100.727H105.653V105.45C105.653 105.981 105.526 106.445 105.273 106.842C105.022 107.24 104.671 107.55 104.218 107.773C103.766 107.993 103.24 108.103 102.638 108.103C102.035 108.103 101.507 107.993 101.054 107.773C100.602 107.55 100.251 107.24 99.9997 106.842C99.7488 106.445 99.6233 105.981 99.6233 105.45V100.727H101.161V105.319C101.161 105.596 101.221 105.842 101.342 106.058C101.465 106.273 101.638 106.442 101.861 106.565C102.083 106.688 102.342 106.75 102.638 106.75C102.937 106.75 103.196 106.688 103.416 106.565C103.638 106.442 103.81 106.273 103.931 106.058C104.054 105.842 104.116 105.596 104.116 105.319V100.727ZM106.918 108V100.727H111.819V101.995H108.456V103.728H111.567V104.996H108.456V106.732H111.833V108H106.918ZM115.356 108V100.727H118.225C118.777 100.727 119.247 100.833 119.635 101.043C120.023 101.252 120.319 101.542 120.523 101.913C120.729 102.283 120.832 102.709 120.832 103.192C120.832 103.675 120.727 104.101 120.519 104.47C120.311 104.839 120.009 105.127 119.614 105.333C119.221 105.539 118.745 105.642 118.186 105.642H116.357V104.41H117.937C118.233 104.41 118.477 104.359 118.669 104.257C118.863 104.153 119.007 104.01 119.102 103.827C119.199 103.643 119.248 103.431 119.248 103.192C119.248 102.95 119.199 102.74 119.102 102.56C119.007 102.377 118.863 102.237 118.669 102.137C118.475 102.035 118.229 101.984 117.93 101.984H116.893V108H115.356ZM122.244 108H120.596L123.107 100.727H125.089L127.596 108H125.948L124.126 102.389H124.069L122.244 108ZM122.141 105.141H126.033V106.342H122.141V105.141ZM132.25 102.819C132.222 102.532 132.1 102.31 131.884 102.151C131.669 101.993 131.377 101.913 131.007 101.913C130.756 101.913 130.545 101.949 130.372 102.02C130.199 102.089 130.066 102.184 129.974 102.308C129.884 102.431 129.839 102.57 129.839 102.727C129.834 102.857 129.862 102.97 129.921 103.067C129.982 103.165 130.066 103.249 130.173 103.32C130.279 103.388 130.402 103.449 130.542 103.501C130.682 103.55 130.831 103.593 130.99 103.629L131.643 103.785C131.96 103.856 132.251 103.951 132.517 104.069C132.782 104.187 133.011 104.333 133.206 104.506C133.4 104.679 133.55 104.882 133.657 105.116C133.765 105.351 133.821 105.62 133.823 105.923C133.821 106.368 133.707 106.754 133.483 107.08C133.26 107.405 132.938 107.657 132.517 107.837C132.098 108.014 131.592 108.103 131 108.103C130.413 108.103 129.902 108.013 129.466 107.833C129.033 107.653 128.694 107.387 128.451 107.034C128.209 106.679 128.082 106.24 128.071 105.717H129.559C129.575 105.96 129.645 106.164 129.768 106.327C129.893 106.488 130.06 106.61 130.269 106.693C130.479 106.774 130.717 106.814 130.983 106.814C131.243 106.814 131.469 106.776 131.661 106.7C131.855 106.625 132.005 106.519 132.112 106.384C132.218 106.249 132.272 106.094 132.272 105.919C132.272 105.756 132.223 105.618 132.126 105.507C132.031 105.396 131.892 105.301 131.707 105.223C131.525 105.145 131.301 105.074 131.036 105.01L130.244 104.811C129.631 104.662 129.147 104.429 128.791 104.112C128.436 103.794 128.26 103.367 128.262 102.83C128.26 102.389 128.377 102.004 128.614 101.675C128.853 101.346 129.181 101.089 129.598 100.905C130.014 100.72 130.488 100.628 131.018 100.628C131.558 100.628 132.029 100.72 132.431 100.905C132.836 101.089 133.151 101.346 133.376 101.675C133.601 102.004 133.717 102.386 133.724 102.819H132.25Z" fill="white"/>
</g>
<g filter="url(#filter1_dd_114_23)">
<mask id="path-3-inside-1_114_23" fill="white">
<path d="M12 74.5C12 33.3548 45.3548 0 86.5 0V0C127.645 0 161 33.3548 161 74.5V74.5C161 115.645 127.645 149 86.5 149V149C45.3548 149 12 115.645 12 74.5V74.5Z"/>
</mask>
<path d="M12 0H161H12ZM161 77C161 119.526 126.526 154 84 154C41.4741 154 7 119.526 7 77L17 74.5C17 112.884 48.1162 144 86.5 144C127.645 144 161 112.884 161 74.5V77ZM84 154C41.4741 154 7 119.526 7 77C7 34.4741 41.4741 0 84 0H86.5C48.1162 0 17 33.3548 17 74.5C17 112.884 48.1162 144 86.5 144L84 154ZM161 0V149V0Z" fill="white" mask="url(#path-3-inside-1_114_23)"/>
</g>
<path d="M46.068 77V30.4545H55.9089V68.8864H75.8634V77H46.068ZM130.381 53.7273C130.381 58.803 129.419 63.1212 127.494 66.6818C125.585 70.2424 122.979 72.9621 119.676 74.8409C116.388 76.7045 112.691 77.6364 108.585 77.6364C104.449 77.6364 100.737 76.697 97.4489 74.8182C94.161 72.9394 91.5625 70.2197 89.6534 66.6591C87.7443 63.0985 86.7898 58.7879 86.7898 53.7273C86.7898 48.6515 87.7443 44.3333 89.6534 40.7727C91.5625 37.2121 94.161 34.5 97.4489 32.6364C100.737 30.7576 104.449 29.8182 108.585 29.8182C112.691 29.8182 116.388 30.7576 119.676 32.6364C122.979 34.5 125.585 37.2121 127.494 40.7727C129.419 44.3333 130.381 48.6515 130.381 53.7273ZM120.403 53.7273C120.403 50.4394 119.911 47.6667 118.926 45.4091C117.956 43.1515 116.585 41.4394 114.812 40.2727C113.04 39.1061 110.964 38.5227 108.585 38.5227C106.206 38.5227 104.131 39.1061 102.358 40.2727C100.585 41.4394 99.2064 43.1515 98.2216 45.4091C97.2519 47.6667 96.767 50.4394 96.767 53.7273C96.767 57.0152 97.2519 59.7879 98.2216 62.0455C99.2064 64.303 100.585 66.0152 102.358 67.1818C104.131 68.3485 106.206 68.9318 108.585 68.9318C110.964 68.9318 113.04 68.3485 114.812 67.1818C116.585 66.0152 117.956 64.303 118.926 62.0455C119.911 59.7879 120.403 57.0152 120.403 53.7273ZM144.71 77V30.4545H154.551V68.8864H174.506V77H144.71Z" fill="#CFBD16"/>
</g>
<defs>
<filter id="filter0_d_114_23" x="52.4495" y="88.6279" width="101.157" height="27.4751" filterUnits="userSpaceOnUse" color-interpolation-filters="sRGB">
<feFlood flood-opacity="0" result="BackgroundImageFix"/>
<feColorMatrix in="SourceAlpha" type="matrix" values="0 0 0 0 0 0 0 0 0 0 0 0 0 0 0 0 0 0 127 0" result="hardAlpha"/>
<feOffset dy="4"/>
<feGaussianBlur stdDeviation="2"/>
<feComposite in2="hardAlpha" operator="out"/>
<feColorMatrix type="matrix" values="0 0 0 0 0 0 0 0 0 0 0 0 0 0 0 0 0 0 0.25 0"/>
<feBlend mode="normal" in2="BackgroundImageFix" result="effect1_dropShadow_114_23"/>
<feBlend mode="normal" in="SourceGraphic" in2="effect1_dropShadow_114_23" result="shape"/>
</filter>
<filter id="filter1_dd_114_23" x="4" y="-8" width="165" height="165" filterUnits="userSpaceOnUse" color-interpolation-filters="sRGB">
<feFlood flood-opacity="0" result="BackgroundImageFix"/>
<feColorMatrix in="SourceAlpha" type="matrix" values="0 0 0 0 0 0 0 0 0 0 0 0 0 0 0 0 0 0 127 0" result="hardAlpha"/>
<feOffset dx="-4" dy="4"/>
<feGaussianBlur stdDeviation="2"/>
<feComposite in2="hardAlpha" operator="out"/>
<feColorMatrix type="matrix" values="0 0 0 0 0 0 0 0 0 0 0 0 0 0 0 0 0 0 0.5 0"/>
<feBlend mode="normal" in2="BackgroundImageFix" result="effect1_dropShadow_114_23"/>
<feColorMatrix in="SourceAlpha" type="matrix" values="0 0 0 0 0 0 0 0 0 0 0 0 0 0 0 0 0 0 127 0" result="hardAlpha"/>
<feOffset dx="4" dy="-4"/>
<feGaussianBlur stdDeviation="2"/>
<feColorMatrix type="matrix" values="0 0 0 0 0 0 0 0 0 0.82 0 0 0 0 1 0 0 0 0.7 0"/>
<feBlend mode="normal" in2="effect1_dropShadow_114_23" result="effect2_dropShadow_114_23"/>
<feBlend mode="normal" in="SourceGraphic" in2="effect2_dropShadow_114_23" result="shape"/>
</filter>
<clipPath id="clip0_114_23">
<rect width="204" height="153" fill="white"/>
</clipPath>
</defs>
</svg>
