<svg width="334" height="151" viewBox="0 0 334 151" fill="none" xmlns="http://www.w3.org/2000/svg">
<g clip-path="url(#clip0_106_4)">
<rect width="334" height="151" fill="#FF0000"/>
<path d="M0 0H152V119H184V151H151.588H0V0Z" fill="#1E8C7F"/>
<path d="M334 151L184.06 151L184.06 32L152 32V0H184.06L334 0V151Z" fill="#00208F"/>
<path d="M38.0909 124V30.9091H74.8182C81.8788 30.9091 87.8939 32.2576 92.8636 34.9545C97.8333 37.6212 101.621 41.3333 104.227 46.0909C106.864 50.8182 108.182 56.2727 108.182 62.4545C108.182 68.6364 106.848 74.0909 104.182 78.8182C101.515 83.5455 97.6515 87.2273 92.5909 89.8636C87.5606 92.5 81.4697 93.8182 74.3182 93.8182H50.9091V78.0455H71.1364C74.9242 78.0455 78.0455 77.3939 80.5 76.0909C82.9849 74.7576 84.8333 72.9242 86.0455 70.5909C87.2879 68.2273 87.9091 65.5151 87.9091 62.4545C87.9091 59.3636 87.2879 56.6667 86.0455 54.3636C84.8333 52.0303 82.9849 50.2273 80.5 48.9545C78.0152 47.6515 74.8636 47 71.0455 47H57.7727V124H38.0909Z" fill="white"/>
<path d="M229.091 124V30.9091H265.818C272.879 30.9091 278.894 32.2576 283.864 34.9545C288.833 37.6212 292.621 41.3333 295.227 46.0909C297.864 50.8182 299.182 56.2727 299.182 62.4545C299.182 68.6364 297.848 74.0909 295.182 78.8182C292.515 83.5455 288.652 87.2273 283.591 89.8636C278.561 92.5 272.47 93.8182 265.318 93.8182H241.909V78.0455H262.136C265.924 78.0455 269.045 77.3939 271.5 76.0909C273.985 74.7576 275.833 72.9242 277.045 70.5909C278.288 68.2273 278.909 65.5151 278.909 62.4545C278.909 59.3636 278.288 56.6667 277.045 54.3636C275.833 52.0303 273.985 50.2273 271.5 48.9545C269.015 47.6515 265.864 47 262.045 47H248.773V124H229.091Z" fill="white"/>
</g>
<defs>
<clipPath id="clip0_106_4">
<rect width="334" height="151" fill="white"/>
</clipPath>
</defs>
</svg>
